<svg width="112" height="129" viewBox="0 0 112 129" fill="none" xmlns="http://www.w3.org/2000/svg">
    <path fill-rule="evenodd" clip-rule="evenodd" d="M85.7332 85.7159L85.7332 85.7114L59.1692 70.3746L59.1691 105.042L55.6047 107.113L52.0205 105.042L52.0205 70.6069L25.6422 85.8364L25.6222 95.7638L43.6223 85.3683L43.6184 114.244L55.7533 121.25L67.8834 114.232L67.8873 85.3566L85.7519 95.6708L85.7477 85.7242L85.7332 85.7159ZM18.4589 99.718L6.48235 92.8033L6.49476 78.9158L18.4869 85.8401L18.4589 99.718ZM92.765 47.0832L62.9447 64.2999L89.3256 79.531L97.8461 74.6345L80.0198 64.3425L105.025 49.9013L105.037 35.8875L92.9024 28.8814L77.5275 37.7399L67.88 43.3125L67.8828 22.501L59.1711 27.5356V27.5518L59.1692 27.5529L59.1692 58.2252L89.1907 40.8923L92.7663 42.9437L92.765 47.0832ZM22.0831 79.6367L48.6474 64.2999L18.6257 46.9667L18.6145 42.8445L22.2 40.7758L52.0205 57.9928L52.0206 27.5435L43.6104 22.6869L43.6076 43.2967L18.6065 28.8623L6.47647 35.88L6.46394 49.8938L31.4999 64.3483L13.533 74.7248L22.0651 79.646L22.0821 79.6361L22.0831 79.6367ZM92.9005 99.784L92.901 85.7289L105.01 78.7704L105.021 78.7769L105.018 92.7733L92.9005 99.784ZM43.6115 14.4249L55.5909 21.3426L67.7184 14.3414L55.7489 7.43086L43.6115 14.4212V14.4249ZM111.468 75.0478L111.46 96.4924L92.8927 107.222L74.316 96.4966L74.3178 117.924L55.7503 128.653L37.191 117.938L37.1818 96.4834L18.5767 107.238L0 96.5123L0.00820983 75.0676L18.5931 64.3482L0.0338385 53.633L0.04204 32.1883L18.6096 21.4589L37.1863 32.1842L37.1771 10.7294L55.7446 0L74.3039 10.7152L74.3131 32.1699L92.8981 21.4505L111.457 32.1658L111.477 53.6031L92.8917 64.3225L111.468 75.0478Z" fill="#2988FC"/>
</svg>
